<svg width="492" height="376" viewBox="0 0 492 376" fill="none" xmlns="http://www.w3.org/2000/svg">
<g clip-path="url(#clip0_6_46)">
<path d="M443.211 154.584L249.525 304.72L251.37 375.006C251.37 375.006 257.328 378.232 266.36 373.662C273.779 369.859 311.87 336.944 331.243 320.851C350.577 304.758 412.538 254.597 427.068 242.269C441.597 229.901 463.007 215.306 469.925 204.13C475.383 195.296 480.15 159.461 478.151 152.51C474.269 139.105 461.046 132.998 461.046 132.998L443.211 154.584Z" fill="#CF7120"/>
<path d="M212.548 28.0682C211.049 31.5249 36.6578 153.969 36.6578 153.969L67.7922 193.952C67.7922 193.952 221.465 295.156 251.6 293.697C281.735 292.237 375.638 220.607 375.638 220.607L453.205 143.599C453.205 143.599 427.029 123.857 424.069 121.86C421.11 119.863 266.399 25.6101 266.399 25.6101L239.223 18.6967L212.548 28.0682Z" fill="#E07D15"/>
<path d="M56.9144 173.711C56.9144 173.711 78.1703 154.468 88.5485 154.468C98.9266 154.468 117.223 167.297 117.223 167.297L89.5478 196.41L115.224 208.739C115.224 208.739 130.522 192.454 140.9 190.956C151.278 189.458 169.075 203.784 169.075 203.784L146.358 231.438L169.075 242.307C169.075 242.307 186.872 224.524 197.749 224.025C208.627 223.526 220.966 234.894 220.966 234.894L199.71 266.005L223.925 276.874C223.925 276.874 241.222 259.091 250.101 256.134C258.98 253.176 286.156 270.959 286.156 270.959L302.453 254.674L196.212 195.91L88.0488 117.942L32.1991 155.467L56.9144 173.711Z" fill="#AC5811"/>
<path d="M113.61 131.692C113.61 131.692 132.521 112.297 145.82 111.682C152.585 111.375 172.919 126.2 172.919 126.2L144.244 156.811L166.231 168.602C166.231 168.602 188.601 146.633 194.521 147.785C200.402 148.976 266.783 196.832 266.783 196.832L247.142 218.033L274.624 232.167C274.624 232.167 295.035 212.925 305.643 212.925C316.252 212.925 337.47 230.593 337.47 230.593L362.992 211.773L144.667 75.9627L88.8944 116.79L113.61 131.692Z" fill="#AC5811"/>
<path d="M189.408 51.6506C189.408 51.6506 147.781 77.9599 151.701 79.4963C155.622 81.071 172.112 91.6715 172.112 91.6715C172.112 91.6715 190.677 74.4648 198.557 74.4648C206.398 74.4648 221.619 87.7539 221.619 87.7539L197.25 112.104L218.044 125.317C218.044 125.317 236.533 108.955 247.142 109.339C257.75 109.723 276.2 121.514 276.2 121.514L277.776 139.182L295.073 151.357C295.073 151.357 302.146 142.331 309.603 141.947C317.059 141.563 331.204 154.123 331.204 154.123L313.523 180.01L330.397 189.035C330.397 189.035 350.808 170.984 359.072 171.368C367.336 171.752 389.706 189.419 389.706 189.419L407.003 174.133L192.945 46.9264L189.408 51.6506Z" fill="#AC5811"/>
<path d="M206.321 43.0088L224.002 56.3364C224.002 56.3364 234.611 41.4341 246.796 41.8182C258.98 42.2023 270.742 53.1869 270.742 53.1869L250.678 72.8517L274.24 85.7951C274.24 85.7951 293.882 70.8929 301.723 71.6611C309.564 72.4292 326.092 86.1792 326.092 86.1792L312.754 110.914L332.396 120.708C332.396 120.708 348.117 108.533 355.574 107.764C363.031 106.996 377.944 118.365 377.944 118.365L360.263 141.909L383.825 153.278C383.825 153.278 397.586 139.144 407.388 138.76C417.189 138.375 434.102 154.046 434.102 154.046L452.167 139.528L260.518 19.8489H229.883L206.321 43.0088Z" fill="#AC5811"/>
<path d="M460.547 131.424C452.705 126.315 394.05 90.4809 361.455 71.6611C328.86 52.8412 279.775 18.2742 259.326 12.3978C238.916 6.52142 223.964 14.7407 217.314 18.2742C210.626 21.8077 162.003 55.645 129.331 77.5375C95.9285 99.8908 40.1941 134.458 32.6988 142.293C25.2419 150.128 18.9381 161.535 18.5538 169.755C18.1694 177.974 16.6319 209.315 18.9766 216.881C21.5519 225.254 25.6647 230.209 37.0422 238.466C48.4197 246.724 121.105 293.389 140.324 306.371C159.581 319.315 230.344 366.825 240.876 371.895C249.871 376.235 258.519 376.235 258.519 376.235C258.519 376.235 255.521 324.922 257.366 320.313C259.211 315.704 324.286 268.079 361.916 236.853C396.241 208.354 452.552 169.14 463.545 155.813C474.538 142.447 468.388 136.532 460.547 131.424ZM429.451 154.315C424.3 158.347 399.239 178.627 369.373 200.711C339.507 222.796 270.973 272.88 259.173 280.638C247.372 288.358 237.801 283.211 231.152 279.178C224.502 275.146 201.055 261.127 152.816 231.975C119.414 211.773 84.4741 186.884 72.6738 178.78C60.8735 170.676 50.3416 166.452 49.9572 158.347C49.5728 150.628 68.5994 141.102 81.13 133.382C93.6606 125.662 133.098 98.0088 151.893 86.9858C170.689 75.9243 217.852 40.5891 228.922 31.7553C239.992 22.9216 250.524 25.4949 255.213 28.0298C258.519 29.7966 287.155 46.1199 296.38 51.6506C305.605 57.1813 365.875 93.3615 387.131 106.766C410.77 121.668 428.605 127.928 435.985 135.648C443.365 143.292 434.601 150.243 429.451 154.315Z" fill="#F5B03E"/>
<path d="M75.1338 189.112C75.1338 189.112 157.813 131.731 192.983 105.998C228 80.3797 286.002 40.2819 286.002 40.2819L303.107 47.6562C303.107 47.6562 244.797 88.3301 200.594 121.284C156.391 154.238 90.5088 201.364 90.5088 201.364L75.1338 189.112Z" fill="#F5B03E"/>
<path d="M131.137 222.527C135.25 221.951 220.082 160.153 260.71 130.118C301.338 100.083 341.39 71.277 341.39 71.277L356.65 80.226C356.65 80.226 273.087 143.676 244.835 164.262C216.584 184.849 146.474 237.237 146.474 237.237L131.137 222.527Z" fill="#F5B03E"/>
<path d="M185.911 255.481C195.328 253.714 267.821 201.326 301.377 174.824C334.933 148.323 391.436 104.653 391.436 104.653L408.079 113.372C408.079 113.372 336.124 170.139 301.377 197.792C266.629 225.446 187.102 279.025 187.102 279.025L185.911 255.481Z" fill="#F5B03E"/>
<path d="M97.466 112.757L82.1294 124.241C82.1294 124.241 118.338 154.046 136.249 166.836C154.161 179.625 226.193 224.755 242.375 233.281C258.558 241.808 294.381 261.818 294.381 261.818L313.139 248.414C313.139 248.414 224.925 202.248 202.631 187.537C177.493 170.945 137.403 145.711 127.716 137.915C109.843 123.396 97.466 112.757 97.466 112.757Z" fill="#F5B03E"/>
<path d="M157.159 73.159L140.093 85.0654C140.093 85.0654 158.428 104.231 185.68 119.978C212.932 135.725 284.157 180.47 304.183 191.109C324.209 201.748 351.922 221.336 351.922 221.336L366.874 206.05C366.874 206.05 283.734 159.615 254.752 141.294C225.77 122.974 198.903 104.692 186.564 97.4327C174.187 90.212 157.159 73.159 157.159 73.159Z" fill="#F5B03E"/>
<path d="M203.4 35.9034L189.101 48.8852C189.101 48.8852 222.349 73.5815 247.488 87.6387C272.626 101.696 325.9 132.768 348.078 146.825C370.257 160.882 407.311 185.579 407.311 185.579L420.533 172.366C420.533 172.366 344.888 125.816 328.053 115.715C308.872 104.231 261.287 75.5403 244.643 65.7463C212.74 47.0033 203.4 35.9034 203.4 35.9034Z" fill="#F5B03E"/>
<path d="M10.405 184.503C9.71315 191.685 15.3635 198.368 24.7807 206.818C39.5407 220.069 78.5163 244.611 117.876 270.729C157.236 296.846 216.661 333.487 226.847 339.94C237.033 346.392 252.561 359.604 258.634 358.107C264.708 356.609 366.49 273.033 389.553 253.753C412.653 234.472 472.808 187.576 477.344 183.428C481.879 179.28 483.417 172.097 481.879 168.295C480.38 164.531 477.305 164.301 477.305 164.301C477.305 164.301 446.709 188.728 427.798 203.477C408.887 218.225 339.238 273.417 325.631 284.018C312.024 294.618 264.323 336.214 257.52 336.214C250.716 336.214 147.012 272.611 129.6 260.896C112.188 249.182 72.8275 223.833 52.7632 209.084C35.2741 196.218 17.9388 175.823 17.9388 175.823C17.9388 175.823 11.1738 176.553 10.405 184.503Z" fill="#E08016"/>
</g>
<defs>
<clipPath id="clip0_6_46">
<rect width="492" height="376" fill="white"/>
</clipPath>
</defs>
</svg>