<svg width="106" height="106" viewBox="0 0 106 106" fill="none" xmlns="http://www.w3.org/2000/svg">
<path d="M53 90.288C82.2711 90.288 106 77.1053 106 60.8436C106 44.5818 82.2711 31.3991 53 31.3991C23.7289 31.3991 0 44.5818 0 60.8436C0 77.1053 23.7289 90.288 53 90.288Z" fill="#939598"/>
<path d="M53 84.3991C82.2711 84.3991 106 71.2164 106 54.9547C106 38.693 82.2711 25.5102 53 25.5102C23.7289 25.5102 0 38.693 0 54.9547C0 71.2164 23.7289 84.3991 53 84.3991Z" fill="#CCD6DD"/>
<path d="M46.269 80.1002L7.58194 57.478C3.86605 55.305 4.84655 47.0017 4.84655 43.3889L46.2719 23.7877C49.9878 21.6147 56.0122 21.6147 59.7281 23.7877L101.201 43.9424C101.201 48.9156 102.131 55.305 98.4122 57.478L59.7281 80.1002C56.0122 82.2732 49.9849 82.2732 46.269 80.1002Z" fill="#F4900C"/>
<path d="M46.269 70.4984L7.58196 47.8762C3.86607 45.7032 3.86607 42.1817 7.58196 40.0087L46.269 17.3865C49.9849 15.2135 56.0092 15.2135 59.7251 17.3865L98.4122 40.0087C102.128 42.1817 102.128 45.7032 98.4122 47.8762L59.7251 70.4984C56.0122 72.6714 49.9849 72.6714 46.269 70.4984Z" fill="#FFAC33"/>
<path d="M51.4188 26.7351L46.6783 23.9614C45.8067 23.452 45.8067 22.6246 46.6783 22.1123L51.4188 19.3386C52.2904 18.8293 53.7067 18.8293 54.5812 19.3386L59.3217 22.1123C60.1933 22.6217 60.1933 23.4491 59.3217 23.9614L54.5812 26.7351C53.7067 27.2474 52.2904 27.2474 51.4188 26.7351ZM62.4811 33.204L57.7406 30.4304C56.869 29.921 56.869 29.0936 57.7406 28.5813L62.4811 25.8076C63.3527 25.2982 64.769 25.2982 65.6435 25.8076L70.384 28.5813C71.2556 29.0906 71.2556 29.918 70.384 30.4304L65.6435 33.204C64.769 33.7164 63.3556 33.7164 62.4811 33.204ZM73.5434 39.673L68.8028 36.8993C67.9313 36.3899 67.9313 35.5625 68.8028 35.0502L73.5434 32.2765C74.4149 31.7671 75.8312 31.7671 76.7057 32.2765L81.4463 35.0502C82.3178 35.5596 82.3178 36.387 81.4463 36.8993L76.7057 39.673C75.8312 40.1853 74.4179 40.1853 73.5434 39.673ZM84.6086 46.1449L79.8681 43.3712C78.9965 42.8618 78.9965 42.0344 79.8681 41.5221L84.6086 38.7484C85.4802 38.239 86.8965 38.239 87.771 38.7484L92.5115 41.5221C93.3831 42.0315 93.3831 42.8589 92.5115 43.3712L87.771 46.1449C86.8965 46.6543 85.4802 46.6543 84.6086 46.1449ZM40.3536 33.204L35.6131 30.4304C34.7415 29.921 34.7415 29.0936 35.6131 28.5813L40.3536 25.8076C41.2252 25.2982 42.6414 25.2982 43.5159 25.8076L48.2565 28.5813C49.1281 29.0906 49.1281 29.918 48.2565 30.4304L43.5159 33.204C42.6414 33.7164 41.2281 33.7164 40.3536 33.204ZM51.4188 39.673L46.6783 36.8993C45.8067 36.3899 45.8067 35.5625 46.6783 35.0502L51.4188 32.2765C52.2904 31.7671 53.7067 31.7671 54.5812 32.2765L59.3217 35.0502C60.1933 35.5596 60.1933 36.387 59.3217 36.8993L54.5812 39.673C53.7067 40.1853 52.2904 40.1853 51.4188 39.673ZM62.4811 46.1449L57.7406 43.3712C56.869 42.8618 56.869 42.0344 57.7406 41.5221L62.4811 38.7484C63.3527 38.239 64.769 38.239 65.6435 38.7484L70.384 41.5221C71.2556 42.0315 71.2556 42.8589 70.384 43.3712L65.6435 46.1449C64.769 46.6543 63.3556 46.6543 62.4811 46.1449ZM73.5434 52.6138L68.8028 49.8401C67.9313 49.3308 67.9313 48.5034 68.8028 47.991L73.5434 45.2174C74.4149 44.708 75.8312 44.708 76.7057 45.2174L81.4463 47.991C82.3178 48.5004 82.3178 49.3278 81.4463 49.8401L76.7057 52.6138C75.8312 53.1232 74.4179 53.1232 73.5434 52.6138ZM29.2913 39.673L24.5508 36.8993C23.6792 36.3899 23.6792 35.5625 24.5508 35.0502L29.2913 32.2765C30.1629 31.7671 31.5792 31.7671 32.4537 32.2765L37.1942 35.0502C38.0658 35.5596 38.0658 36.387 37.1942 36.8993L32.4537 39.673C31.5792 40.1853 30.1629 40.1853 29.2913 39.673ZM40.3536 46.1449L35.6131 43.3712C34.7415 42.8618 34.7415 42.0344 35.6131 41.5221L40.3536 38.7484C41.2252 38.239 42.6414 38.239 43.5159 38.7484L48.2565 41.5221C49.1281 42.0315 49.1281 42.8589 48.2565 43.3712L43.5159 46.1449C42.6414 46.6543 41.2281 46.6543 40.3536 46.1449ZM51.4188 52.6138L46.6783 49.8401C45.8067 49.3308 45.8067 48.5034 46.6783 47.991L51.4188 45.2174C52.2904 44.708 53.7067 44.708 54.5812 45.2174L59.3217 47.991C60.1933 48.5004 60.1933 49.3278 59.3217 49.8401L54.5812 52.6138C53.7067 53.1232 52.2904 53.1232 51.4188 52.6138ZM62.4811 59.0828L57.7406 56.3091C56.869 55.7997 56.869 54.9723 57.7406 54.46L62.4811 51.6863C63.3527 51.1769 64.769 51.1769 65.6435 51.6863L70.384 54.46C71.2556 54.9694 71.2556 55.7968 70.384 56.3091L65.6435 59.0828C64.769 59.5921 63.3556 59.5921 62.4811 59.0828ZM18.2291 46.1449L13.4885 43.3712C12.6169 42.8618 12.6169 42.0344 13.4885 41.5221L18.2291 38.7484C19.1006 38.239 20.5169 38.239 21.3914 38.7484L26.132 41.5221C27.0035 42.0315 27.0035 42.8589 26.132 43.3712L21.3914 46.1449C20.5169 46.6543 19.1006 46.6543 18.2291 46.1449ZM29.2913 52.6138L24.5508 49.8401C23.6792 49.3308 23.6792 48.5034 24.5508 47.991L29.2913 45.2174C30.1629 44.708 31.5792 44.708 32.4537 45.2174L37.1942 47.991C38.0658 48.5004 38.0658 49.3278 37.1942 49.8401L32.4537 52.6138C31.5792 53.1232 30.1629 53.1232 29.2913 52.6138ZM40.3536 59.0828L35.6131 56.3091C34.7415 55.7997 34.7415 54.9723 35.6131 54.46L40.3536 51.6863C41.2252 51.1769 42.6414 51.1769 43.5159 51.6863L48.2565 54.46C49.1281 54.9694 49.1281 55.7968 48.2565 56.3091L43.5159 59.0828C42.6414 59.5921 41.2281 59.5921 40.3536 59.0828ZM51.4188 65.5517L46.6783 62.778C45.8067 62.2686 45.8067 61.4413 46.6783 60.9289L51.4188 58.1553C52.2904 57.6459 53.7067 57.6459 54.5812 58.1553L59.3217 60.9289C60.1933 61.4383 60.1933 62.2657 59.3217 62.778L54.5812 65.5517C53.7067 66.0611 52.2904 66.0611 51.4188 65.5517Z" fill="#F4900C"/>
<path d="M46.2867 32.4414C36.2579 29.3822 32.0326 30.925 32.6892 38.8162C32.86 40.8567 30.0539 44.2545 27.2508 46.2097C20.7289 50.7559 23.532 58.3525 34.7297 52.7522C40.3389 49.9491 48.5156 50.1405 58.4384 53.1762C66.7653 55.7261 71.9504 59.2123 72.6306 62.9518C75.9343 61.8712 77.7304 60.4578 79.3439 59.0975C78.6579 57.5487 75.6045 53.0908 70.7609 50.9679C61.5978 46.9487 70.4488 41.1599 77.3034 39.7495C83.5074 38.4746 77.3888 33.8018 67.9548 33.9696C58.5267 34.1404 60.897 36.8993 46.2867 32.4414Z" fill="#D3790D"/>
<path opacity="0.5" d="M72.6335 62.4394C72.6335 63.7821 72.8043 63.8175 72.8043 66.5234C72.8043 71.791 79.2644 70.8576 79.2644 62.1038C79.2644 61.085 79.3498 59.0975 79.3498 59.0975L72.6335 62.4394Z" fill="#D3790D"/>
<path d="M65.2489 36.2604C66.6033 37.0318 66.6062 41.7459 65.2489 42.5173L55.4497 48.1029C54.0953 48.8744 51.9046 48.8744 50.5502 48.1029L40.7481 42.5173C39.3937 41.7459 39.3937 37.0318 40.7481 36.2604L50.5502 34.1374C51.9046 33.366 54.0953 33.366 55.4497 34.1374L65.2489 36.2604Z" fill="#FFAC33"/>
<path d="M65.2489 36.2604C66.6033 37.0318 66.6062 38.2803 65.2489 39.0517L55.4497 44.6373C54.0953 45.4088 51.9046 45.4088 50.5502 44.6373L40.7481 39.0517C39.3937 38.2803 39.3937 37.0318 40.7481 36.2604L50.5502 30.6748C51.9046 29.9033 54.0953 29.9033 55.4497 30.6748L65.2489 36.2604Z" fill="#FFD983"/>
</svg>